<svg width="480" height="480" viewBox="0 0 480 480" fill="none" xmlns="http://www.w3.org/2000/svg">
<path d="M258.942 4.43558L429.148 92.0052C440.688 97.5591 447.915 108.124 448.06 119.65V311.84C447.876 323.357 440.66 333.905 429.148 339.485L157.953 478.868C153.564 481.141 147.901 479.884 145.282 476.054C144.471 474.846 144.016 473.481 143.958 472.081V387.491L50.9118 339.485C39.4004 333.905 32.1842 323.357 32 311.84V119.65C32.1448 108.124 39.3719 97.5591 50.9118 92.0052L221.118 4.43558C232.821 -1.47853 247.239 -1.47853 258.942 4.43558Z" fill="#FFD700"/>
<path d="M137.536 179.697C131.898 179.697 127.308 183.641 127.14 188.561L127.135 188.84L127.138 282.942L127.172 283.925C127.555 289.665 131.136 294.89 136.767 297.865L137.163 298.069L189.523 324.334V361.198L189.551 361.881C189.949 366.611 194.441 370.341 199.924 370.341C201.614 370.341 203.276 369.979 204.767 369.29L205.137 369.11L344.058 298.401L345.015 297.89C350.507 294.766 353.91 289.45 354.075 283.678L354.081 283.274V188.857C354.081 187.26 353.605 185.691 352.701 184.305C349.897 180.012 343.731 178.475 338.796 180.785L338.501 180.928L246.116 227.548L245.324 227.94C242.216 229.326 238.506 229.254 235.46 227.724L235.125 227.548L142.716 180.911C141.14 180.116 139.354 179.697 137.536 179.697Z" fill="#0A0A0A"/>
<path d="M247.853 74.0369C243.998 72.0943 239.292 72.0203 235.37 73.8197L234.993 73.9997L133.134 124.552C131.508 125.359 130.159 126.536 129.229 127.959C126.423 132.251 128.019 137.707 132.776 140.29L133.066 140.441L234.907 191.879C238.819 193.854 243.606 193.902 247.558 192.028L247.938 191.841L348.215 140.41C349.788 139.604 351.092 138.449 351.997 137.061C354.798 132.766 353.196 127.312 348.436 124.733L348.147 124.582L247.853 74.0369Z" fill="#0A0A0A" fill-opacity="0.8"/>
</svg>
